<?xml version="1.0" standalone="no"?>
<!DOCTYPE svg PUBLIC "-//W3C//DTD SVG 20010904//EN"
 "http://www.w3.org/TR/2001/REC-SVG-20010904/DTD/svg10.dtd">
<svg version="1.0" xmlns="http://www.w3.org/2000/svg"
 width="1792.000000pt" height="592.000000pt" viewBox="0 0 1792.000000 592.000000"
 preserveAspectRatio="xMidYMid meet">

<g transform="translate(0.000000,592.000000) scale(0.100000,-0.100000)"
fill="#000000" stroke="none">
<path d="M9545 4732 c-306 -79 -588 -329 -741 -658 -109 -232 -118 -447 -29
-625 31 -61 116 -153 171 -185 24 -14 44 -28 44 -30 0 -2 -19 -13 -42 -25
-243 -124 -508 -421 -609 -682 -138 -359 -107 -698 86 -940 194 -244 555 -305
901 -152 150 66 354 231 474 384 167 212 250 418 253 631 1 90 -2 112 -21 155
-13 27 -30 57 -39 67 -33 37 -40 22 -45 -94 -10 -225 -114 -440 -308 -642
-159 -165 -327 -272 -499 -316 -117 -31 -261 -26 -341 11 -76 35 -121 77 -159
148 -46 88 -61 144 -68 256 -9 167 26 322 116 505 63 130 129 224 230 332 158
167 298 251 515 307 170 44 187 59 150 137 -37 78 -101 91 -264 54 -180 -41
-261 -17 -316 97 -27 53 -29 67 -29 168 1 130 24 223 87 354 147 300 475 551
722 551 127 0 191 -64 189 -190 -1 -128 -64 -250 -193 -380 -93 -94 -180 -147
-258 -159 -65 -9 -66 -30 -5 -91 83 -83 177 -90 310 -25 143 71 261 229 310
415 26 101 24 258 -5 343 -42 121 -139 221 -260 268 -79 31 -230 36 -327 11z"/>
<path d="M13195 4682 c-106 -66 -213 -274 -343 -667 -105 -314 -221 -809 -253
-1074 -12 -98 -15 -107 -48 -144 -37 -41 -161 -140 -168 -134 -2 2 2 51 8 108
27 260 -51 551 -173 642 -63 47 -100 61 -163 61 -74 -1 -123 -24 -186 -91 -66
-69 -97 -114 -151 -217 -26 -50 -47 -89 -47 -86 -1 3 6 41 14 85 19 104 19
159 -1 224 -20 68 -90 146 -147 163 -37 11 -41 10 -58 -11 -12 -14 -19 -39
-19 -65 0 -50 -72 -585 -102 -751 -27 -154 -72 -285 -158 -461 -50 -103 -79
-150 -109 -177 -23 -20 -46 -37 -53 -37 -52 0 -216 276 -294 493 l-14 39 89
146 c49 81 101 172 116 202 66 132 181 333 222 384 35 45 85 86 161 132 11 7
-25 47 -62 69 -90 53 -181 22 -263 -88 -25 -34 -98 -170 -163 -302 -65 -132
-133 -262 -150 -290 l-32 -49 -15 34 c-8 19 -48 136 -89 259 -41 124 -83 239
-94 255 -48 78 -134 136 -202 136 -41 0 -102 -31 -106 -54 -2 -9 15 -63 37
-119 22 -56 76 -201 120 -322 43 -121 100 -271 125 -334 l46 -114 -22 -31
c-12 -17 -68 -92 -123 -166 -243 -323 -290 -433 -233 -540 28 -51 86 -97 137
-106 l34 -7 -7 69 c-13 132 29 235 188 457 l104 146 37 -72 c147 -282 275
-417 399 -417 85 0 164 64 248 200 22 36 37 54 34 40 -4 -14 -22 -149 -41
-300 -46 -362 -68 -656 -55 -734 16 -100 75 -177 167 -218 70 -31 69 -33 77
210 17 557 65 949 161 1337 139 563 346 956 465 883 11 -7 32 -35 45 -63 59
-122 58 -370 -1 -637 l-15 -67 -147 -83 c-239 -135 -350 -264 -340 -397 9
-121 89 -186 228 -186 45 0 95 7 125 18 108 37 211 145 294 307 45 87 111 269
111 305 0 8 21 26 48 41 26 15 75 47 109 71 l62 43 0 -187 c-1 -216 15 -333
60 -428 56 -120 128 -175 240 -183 72 -5 116 10 189 66 52 40 134 151 187 253
l48 92 23 -92 c39 -155 105 -245 217 -297 246 -112 490 69 628 464 18 52 37
95 43 97 6 1 37 7 69 13 82 16 153 51 215 107 61 55 120 166 200 380 27 72 53
130 58 130 5 0 55 -13 112 -29 123 -34 122 -29 58 -196 -119 -313 -151 -457
-144 -645 7 -179 47 -264 150 -321 45 -24 64 -28 123 -28 147 1 249 87 372
312 l47 86 12 -48 c36 -140 118 -247 232 -303 75 -38 77 -38 196 -38 134 0
187 15 282 78 113 75 252 254 333 429 37 80 233 585 261 671 9 29 16 37 29 32
9 -4 58 -18 109 -33 88 -25 92 -27 92 -54 0 -15 -23 -89 -50 -164 -119 -321
-160 -543 -129 -708 31 -171 127 -262 275 -260 188 2 377 202 513 546 43 111
55 175 42 226 -9 30 -17 42 -30 42 -26 0 -32 -10 -99 -162 -79 -181 -143 -286
-223 -369 -136 -142 -219 -127 -219 40 0 140 32 258 186 694 61 174 13 270
-163 322 -127 38 -243 76 -243 80 0 2 11 46 25 97 30 110 42 265 26 324 -22
81 -123 142 -189 115 -67 -28 -155 -145 -193 -259 -32 -93 -32 -207 0 -279 21
-48 80 -112 125 -138 17 -10 16 -14 -7 -80 -71 -197 -208 -548 -237 -605 -83
-164 -225 -322 -336 -375 -146 -69 -289 -10 -339 138 -20 60 -30 240 -18 307
l8 45 85 6 c98 8 155 29 246 94 124 89 212 224 254 389 54 213 -12 412 -163
493 -48 26 -160 24 -213 -4 -149 -79 -295 -276 -389 -528 -41 -109 -85 -284
-100 -398 -26 -202 -186 -505 -297 -563 -39 -20 -66 -17 -93 11 -23 22 -25 32
-25 110 0 137 37 280 169 655 44 124 51 185 26 242 -29 71 -95 108 -272 153
-34 8 -83 24 -108 35 l-45 19 15 38 c52 136 68 342 31 415 -20 41 -65 74 -114
84 -93 19 -221 -129 -267 -307 -37 -139 1 -276 94 -345 28 -21 51 -43 51 -49
0 -13 -37 -121 -69 -203 -38 -95 -91 -192 -127 -232 -61 -67 -204 -122 -190
-72 20 74 31 191 31 352 0 152 -4 196 -19 250 -52 177 -132 263 -274 291 -112
23 -196 -16 -260 -121 -30 -51 -34 -54 -70 -52 -69 5 -139 -71 -221 -243 -54
-112 -88 -226 -116 -390 -52 -301 -215 -607 -345 -646 -36 -11 -44 -10 -68 8
-55 41 -66 82 -70 263 -4 156 10 356 28 418 4 16 37 67 72 113 305 395 567
1018 597 1418 16 214 -25 362 -117 426 -56 38 -150 47 -197 17z m169 -238 c11
-28 6 -140 -10 -255 -44 -320 -210 -770 -398 -1079 -84 -138 -88 -139 -60 -19
14 57 32 136 40 174 63 304 247 916 324 1078 49 104 88 142 104 101z m1356
-1021 c-12 -51 -25 -91 -30 -88 -31 19 -13 163 28 225 l17 25 3 -34 c2 -19 -6
-77 -18 -128z m2056 11 c-9 -42 -20 -83 -25 -92 -8 -14 -11 -12 -16 11 -12 46
0 129 25 182 l24 50 4 -38 c2 -21 -4 -72 -12 -113z m-2756 -153 c48 -52 65
-134 64 -316 0 -143 -21 -337 -40 -366 -8 -13 -60 17 -110 63 -51 47 -98 135
-115 216 -15 75 -6 242 18 306 41 113 125 158 183 97z m2134 7 c33 -46 15
-171 -42 -292 -82 -176 -206 -293 -329 -313 -42 -7 -43 2 -3 129 72 229 191
426 289 478 47 25 67 25 85 -2z m-2494 -475 c12 -36 33 -89 47 -117 34 -68
153 -184 226 -221 33 -17 61 -33 63 -37 8 -12 -73 -209 -112 -274 -70 -117
-147 -170 -223 -153 -150 33 -173 408 -49 802 11 37 22 67 24 67 1 0 12 -30
24 -67z m-1671 -555 c-48 -110 -108 -197 -164 -234 -30 -20 -82 -21 -100 -3
-20 20 -4 82 33 128 34 42 245 188 250 173 2 -6 -7 -34 -19 -64z"/>
<path d="M1508 4675 c-255 -57 -567 -278 -835 -590 -241 -280 -380 -565 -408
-836 -16 -152 39 -312 140 -414 110 -109 298 -173 437 -147 159 29 302 141
378 295 36 72 44 99 48 161 9 147 -19 165 -71 46 -66 -152 -160 -256 -292
-321 -260 -129 -432 8 -395 315 17 144 48 240 125 391 118 234 242 401 438
592 160 156 270 241 393 300 155 76 236 67 282 -29 73 -150 37 -677 -89 -1298
-146 -715 -363 -1247 -613 -1496 -85 -85 -120 -104 -198 -104 -33 0 -38 -3
-38 -24 0 -13 18 -43 41 -70 114 -129 263 -120 406 26 88 90 160 204 273 433
132 267 222 489 540 1340 198 531 344 875 369 875 4 0 6 -12 5 -27 -10 -88
-39 -309 -69 -519 -93 -655 -121 -942 -113 -1181 7 -186 27 -257 94 -332 46
-52 133 -101 177 -101 29 0 28 -2 92 205 190 614 490 1316 759 1780 122 209
251 392 233 329 -57 -192 -159 -567 -252 -929 -193 -748 -239 -1371 -126
-1698 61 -176 193 -299 323 -301 25 -1 49 2 53 6 13 13 -4 52 -45 106 -79 106
-105 241 -105 547 1 263 19 433 86 799 58 320 145 644 300 1126 77 236 129
428 129 472 0 80 -61 163 -172 238 -99 66 -138 54 -249 -71 -119 -134 -215
-278 -376 -564 -186 -327 -358 -710 -569 -1262 -21 -57 -41 -103 -44 -103 -21
0 62 626 129 975 83 430 101 546 101 656 0 138 -30 201 -122 256 -77 46 -141
62 -176 42 -74 -41 -239 -354 -389 -739 -52 -134 -143 -381 -168 -458 -9 -29
-19 -51 -21 -49 -2 2 3 37 11 78 64 312 92 713 62 885 -20 111 -46 182 -95
253 -83 123 -229 173 -394 136z"/>
<path d="M6425 3968 c-113 -129 -144 -293 -79 -425 24 -49 93 -123 115 -123
23 0 66 61 104 151 22 51 61 137 87 191 26 54 45 105 42 113 -10 25 -175 145
-199 145 -16 0 -39 -18 -70 -52z"/>
<path d="M5629 3711 c-96 -38 -204 -135 -278 -250 -49 -76 -96 -218 -106 -316
-7 -76 -93 -357 -182 -600 -90 -242 -214 -470 -276 -505 -34 -19 -55 -8 -82
46 -17 33 -20 58 -19 169 0 188 37 373 148 743 69 231 63 292 -40 403 -56 59
-107 85 -139 71 -26 -12 -44 -65 -70 -207 -90 -498 -264 -1015 -392 -1165 -65
-76 -130 -85 -170 -23 -15 23 -18 49 -18 173 0 206 43 416 152 740 83 247 77
311 -38 414 -55 49 -92 65 -118 49 -42 -25 -179 -559 -216 -840 -19 -145 -19
-406 -1 -494 24 -114 75 -195 146 -237 38 -23 57 -27 120 -27 156 0 263 93
367 320 35 76 36 75 52 -32 30 -194 113 -292 249 -293 91 0 151 44 231 170 30
46 39 56 34 35 -4 -16 -7 -63 -7 -103 3 -145 97 -276 250 -349 67 -32 87 -37
174 -41 81 -4 110 -1 168 17 130 39 223 130 275 268 18 47 22 79 22 168 0 126
-23 216 -80 322 l-34 62 88 47 c49 25 117 68 152 94 35 27 65 47 67 46 1 -2
-2 -25 -8 -52 -16 -81 -24 -361 -12 -439 15 -95 64 -188 120 -228 34 -25 55
-32 106 -35 76 -5 132 16 195 73 50 45 142 181 172 254 12 28 25 51 29 51 4 0
10 -15 13 -33 10 -61 70 -169 124 -224 83 -83 195 -126 323 -125 186 1 350
107 486 314 153 232 207 414 144 490 -16 20 -20 21 -33 8 -7 -8 -22 -37 -32
-65 -10 -27 -40 -95 -68 -150 -98 -197 -199 -315 -324 -377 -56 -27 -70 -30
-136 -27 -60 4 -82 9 -115 31 -84 56 -126 171 -125 343 1 244 84 535 210 734
81 129 204 215 240 169 35 -44 17 -161 -43 -287 -58 -123 -58 -168 -2 -190 34
-13 88 2 126 34 86 72 120 329 63 478 -89 231 -311 274 -492 96 -179 -176
-335 -537 -365 -844 -18 -185 -175 -495 -282 -558 -74 -43 -112 6 -112 146 0
151 40 337 142 667 77 251 81 289 39 374 -46 93 -162 189 -208 172 -24 -10
-39 -63 -88 -320 -56 -289 -63 -303 -186 -399 -81 -62 -251 -153 -269 -142
-17 11 -128 239 -156 321 -49 147 -40 325 21 430 46 79 191 187 285 214 35 10
36 4 14 -48 -42 -100 -76 -206 -94 -294 -25 -121 -27 -281 -4 -337 16 -40 48
-61 65 -44 5 5 20 65 34 134 33 167 48 206 150 405 99 192 101 205 38 275 -41
45 -75 50 -110 17 -13 -12 -23 -17 -23 -11 0 5 -16 31 -36 58 -62 80 -149 104
-245 66z m-240 -1101 c24 -47 54 -103 67 -126 l24 -41 -62 -23 c-129 -46 -242
-107 -306 -166 l-64 -57 17 39 c73 167 121 293 166 441 l54 171 31 -76 c17
-42 50 -115 73 -162z m184 -385 c38 -105 47 -217 22 -301 -32 -110 -143 -183
-260 -171 -129 13 -201 92 -193 212 5 85 48 150 142 217 77 55 222 129 245
125 8 -1 28 -38 44 -82z"/>
</g>
</svg>
